<svg width="21" height="21" viewBox="0 0 21 21" fill="none" xmlns="http://www.w3.org/2000/svg">
<path fill-rule="evenodd" clip-rule="evenodd" d="M6.40995 3.02982C4.24871 4.50112 2.83333 6.98016 2.83333 9.78606C2.83333 14.2964 6.48967 17.9528 11 17.9528C13.8059 17.9528 16.2849 16.5374 17.7562 14.3762C11.7954 13.7245 7.0616 8.99066 6.40995 3.02982ZM19.1667 12.1195C20.177 12.1195 21.0471 13.0099 20.6473 13.9378C19.0381 17.672 15.3243 20.2861 11 20.2861C5.20101 20.2861 0.5 15.5851 0.5 9.78606C0.5 5.46173 3.11412 1.74795 6.8483 0.1388C7.7762 -0.26105 8.6667 0.60902 8.6667 1.61941C8.6667 7.41836 13.3677 12.1195 19.1667 12.1195Z" fill="white"/>
</svg>
